<?xml version="1.0" encoding="UTF-8"?>
<!DOCTYPE svg PUBLIC "-//W3C//DTD SVG 1.1//EN" "http://www.w3.org/Graphics/SVG/1.1/DTD/svg11.dtd">
<!-- Creator: CorelDRAW -->
<svg xmlns="http://www.w3.org/2000/svg" xml:space="preserve" width="2048px" height="2048px" style="shape-rendering:geometricPrecision; text-rendering:geometricPrecision; image-rendering:optimizeQuality; fill-rule:evenodd; clip-rule:evenodd"
viewBox="0 0 2048 2048"
 xmlns:xlink="http://www.w3.org/1999/xlink">
 <defs>
  <style type="text/css">
   <![CDATA[
    .fil2 {fill:none}
    .fil0 {fill:#212121;fill-rule:nonzero}
    .fil1 {fill:#66BB6A;fill-rule:nonzero}
   ]]>
  </style>
 </defs>
 <g id="Layer_x0020_1">
  <metadata id="CorelCorpID_0Corel-Layer"/>
  <path class="fil0" d="M279.999 486.344l1488 0c13.2543,0 24,10.7457 24,24l0 1120.6c0,13.2543 -10.7457,24 -24,24l-1488 0c-13.2543,0 -24,-10.7457 -24,-24l0 -1120.6c0,-13.2543 10.7457,-24 24,-24zm1464 48l-1440 0 0 1072.6 1440 0 0 -1072.6z"/>
  <path class="fil0" d="M279.999 774.343c-13.2543,0 -24,10.7457 -24,24 0,13.2543 10.7457,24 24,24l1488 0c13.2543,0 24,-10.7457 24,-24 0,-13.2543 -10.7457,-24 -24,-24l-1488 0z"/>
  <path class="fil0" d="M534.479 579.303c20.7177,0 39.4807,8.40119 53.0611,21.9803 13.5791,13.5803 21.9803,32.341 21.9803,53.0611 0,20.7177 -8.40119,39.4807 -21.9803,53.0611 -13.5803,13.5791 -32.3433,21.9803 -53.0611,21.9803 -20.7201,0 -39.4807,-8.40119 -53.0611,-21.9803 -13.5791,-13.5803 -21.9803,-32.3433 -21.9803,-53.0611 0,-20.7201 8.40119,-39.4807 21.9803,-53.0611 13.5803,-13.5791 32.341,-21.9803 53.0611,-21.9803zm19.1232 55.9182c-4.89095,-4.89095 -11.6539,-7.91812 -19.1232,-7.91812 -7.4693,0 -14.2311,3.02717 -19.1232,7.91812 -4.89095,4.89213 -7.91812,11.6539 -7.91812,19.1232 0,7.4693 3.02717,14.2323 7.91812,19.1232 4.89213,4.89095 11.6539,7.91812 19.1232,7.91812 7.4693,0 14.2323,-3.02717 19.1232,-7.91812 4.89095,-4.89095 7.91812,-11.6539 7.91812,-19.1232 0,-7.4693 -3.02717,-14.2311 -7.91812,-19.1232z"/>
  <path class="fil0" d="M860.826 579.303c20.7177,0 39.4807,8.40119 53.0611,21.9803 13.5791,13.5803 21.9803,32.341 21.9803,53.0611 0,20.7177 -8.40119,39.4807 -21.9803,53.0611 -13.5803,13.5791 -32.3433,21.9803 -53.0611,21.9803 -20.7201,0 -39.4807,-8.40119 -53.0611,-21.9803 -13.5791,-13.5803 -21.9803,-32.3433 -21.9803,-53.0611 0,-20.7201 8.40119,-39.4807 21.9803,-53.0611 13.5803,-13.5791 32.341,-21.9803 53.0611,-21.9803zm19.1232 55.9182c-4.89095,-4.89095 -11.6539,-7.91812 -19.1232,-7.91812 -7.4693,0 -14.2311,3.02717 -19.1232,7.91812 -4.89095,4.89213 -7.91812,11.6539 -7.91812,19.1232 0,7.4693 3.02717,14.2323 7.91812,19.1232 4.89213,4.89095 11.6539,7.91812 19.1232,7.91812 7.4693,0 14.2323,-3.02717 19.1232,-7.91812 4.89095,-4.89095 7.91812,-11.6539 7.91812,-19.1232 0,-7.4693 -3.02717,-14.2311 -7.91812,-19.1232z"/>
  <path class="fil0" d="M1187.17 579.303c20.7201,0 39.4807,8.40119 53.0611,21.9803 13.5791,13.5803 21.9803,32.341 21.9803,53.0611 0,20.7177 -8.40119,39.4807 -21.9803,53.0611 -13.5803,13.5791 -32.341,21.9803 -53.0611,21.9803 -20.7177,0 -39.4807,-8.40119 -53.0611,-21.9803 -13.5791,-13.5803 -21.9803,-32.3433 -21.9803,-53.0611 0,-20.7201 8.40119,-39.4807 21.9803,-53.0611 13.5803,-13.5791 32.3433,-21.9803 53.0611,-21.9803zm19.1232 55.9182c-4.89213,-4.89095 -11.6539,-7.91812 -19.1232,-7.91812 -7.4693,0 -14.2323,3.02717 -19.1232,7.91812 -4.89095,4.89213 -7.91812,11.6539 -7.91812,19.1232 0,7.4693 3.02717,14.2323 7.91812,19.1232 4.89095,4.89095 11.6539,7.91812 19.1232,7.91812 7.4693,0 14.2311,-3.02717 19.1232,-7.91812 4.89095,-4.89095 7.91812,-11.6539 7.91812,-19.1232 0,-7.4693 -3.02717,-14.2311 -7.91812,-19.1232z"/>
  <path class="fil0" d="M1513.52 579.303c20.7201,0 39.4807,8.40119 53.0611,21.9803 13.5791,13.5803 21.9803,32.341 21.9803,53.0611 0,20.7177 -8.40119,39.4807 -21.9803,53.0611 -13.5803,13.5791 -32.341,21.9803 -53.0611,21.9803 -20.7177,0 -39.4807,-8.40119 -53.0611,-21.9803 -13.5791,-13.5803 -21.9803,-32.3433 -21.9803,-53.0611 0,-20.7201 8.40119,-39.4807 21.9803,-53.0611 13.5803,-13.5791 32.3433,-21.9803 53.0611,-21.9803zm19.1232 55.9182c-4.89213,-4.89095 -11.6539,-7.91812 -19.1232,-7.91812 -7.4693,0 -14.2323,3.02717 -19.1232,7.91812 -4.89095,4.89213 -7.91812,11.6539 -7.91812,19.1232 0,7.4693 3.02717,14.2323 7.91812,19.1232 4.89095,4.89095 11.6539,7.91812 19.1232,7.91812 7.4693,0 14.2311,-3.02717 19.1232,-7.91812 4.89095,-4.89095 7.91812,-11.6539 7.91812,-19.1232 0,-7.4693 -3.02717,-14.2311 -7.91812,-19.1232z"/>
  <polygon class="fil0" points="558.479,417.055 558.479,603.514 510.479,603.514 510.479,417.055 "/>
  <polygon class="fil0" points="884.826,417.055 884.826,603.514 836.826,603.514 836.826,417.055 "/>
  <polygon class="fil0" points="1211.17,417.055 1211.17,603.514 1163.17,603.514 1163.17,417.055 "/>
  <polygon class="fil0" points="1537.52,417.055 1537.52,603.514 1489.52,603.514 1489.52,417.055 "/>
  <path class="fil1" d="M951.352 1453.83l-58.4504 0 0 -372.668c-14.0858,13.4209 -32.4981,26.8418 -55.3453,40.2614 -22.9595,13.4209 -43.4788,23.5134 -61.6678,30.1689l0 -56.4556c32.7189,-15.4169 61.3347,-34.05 85.8461,-55.8993 24.4004,-21.9614 41.8146,-43.1457 52.0182,-63.7749l37.5992 0 0 478.367zm320.76 0l-58.4504 0 0 -372.668c-14.0858,13.4209 -32.4981,26.8418 -55.3453,40.2614 -22.9595,13.4209 -43.4788,23.5134 -61.6678,30.1689l0 -56.4556c32.7189,-15.4169 61.3347,-34.05 85.8461,-55.8993 24.4004,-21.9614 41.8146,-43.1457 52.0182,-63.7749l37.5992 0 0 478.367z"/>
 </g>
 <rect class="fil2" width="2048" height="2048"/>
</svg>
