<?xml version="1.0" encoding="UTF-8"?>
<!DOCTYPE svg PUBLIC "-//W3C//DTD SVG 1.1//EN" "http://www.w3.org/Graphics/SVG/1.1/DTD/svg11.dtd">
<!-- Creator: CorelDRAW -->
<svg xmlns="http://www.w3.org/2000/svg" xml:space="preserve" width="6.82666in" height="6.82666in" style="shape-rendering:geometricPrecision; text-rendering:geometricPrecision; image-rendering:optimizeQuality; fill-rule:evenodd; clip-rule:evenodd"
viewBox="0 0 6.82666 6.82666"
 xmlns:xlink="http://www.w3.org/1999/xlink"
 version="1.1">
 <defs>
  <style type="text/css">
   <![CDATA[
    .fil15 {fill:none}
    .fil10 {fill:#171D24}
    .fil8 {fill:#1E140F}
    .fil12 {fill:#1F262E}
    .fil1 {fill:#271911}
    .fil14 {fill:#333B43}
    .fil7 {fill:#443B32}
    .fil4 {fill:#51473D}
    .fil6 {fill:#63584C}
    .fil3 {fill:#726658}
    .fil13 {fill:#B7B7B8}
    .fil11 {fill:#C9C9C8}
    .fil5 {fill:#ED937B}
    .fil0 {fill:#F19B80}
    .fil9 {fill:#F2B19F}
    .fil2 {fill:#F9BBA4}
   ]]>
  </style>
 </defs>
 <g id="Layer_x0020_1">
  <metadata id="CorelCorpID_0Corel-Layer"/>
  <g id="_386971760">
   <g id="Guides">
   </g>
   <g id="Layer_2">
   </g>
   <g id="Layer_3">
   </g>
   <g id="Layer_4">
   </g>
   <g id="Layer_5">
   </g>
   <g id="Layer_6">
   </g>
   <g id="Layer_7">
   </g>
   <g id="Layer_8">
   </g>
   <g id="Layer_9">
   </g>
   <g id="Layer_10">
   </g>
   <g id="Layer_11">
   </g>
   <g id="Layer_12">
   </g>
   <g id="Layer_13">
   </g>
   <g id="Layer_14">
   </g>
   <g id="Layer_15">
   </g>
   <g id="Layer_16">
   </g>
   <g id="Layer_17">
   </g>
   <g id="Layer_18">
   </g>
   <g id="Layer_19">
   </g>
   <g id="Layer_20">
    <g>
     <g>
      <g>
       <path id="_385910728" class="fil0" d="M3.88154 3.4079c-0.00113386,-0.0473346 0.00259843,-0.0804331 0.00863386,-0.110335 -0.0239331,0.0195984 -0.0419016,0.0321654 -0.0497677,0.0375984 -0.0411339,0.0282992 -0.129031,0.0875315 -0.259433,0.118335 -0.0345984,0.00816535 -0.168197,0.0370315 -0.335996,0 -0.0325669,-0.00716535 -0.186835,-0.0434016 -0.340268,-0.169067 -0.00493307,-0.0040315 -0.0117008,-0.0101654 -0.0196654,-0.0171654 0.0132677,0.0514331 0.0252677,0.0914331 0.0233661,0.170866 -0.00356693,0.148701 -0.0497008,0.291902 -0.0956339,0.392866l0.558634 0.491402 0.0241339 0.0209016 0.601528 -0.508134 -0.0114685 -0.0237992c-0.0511614,-0.106268 -0.100331,-0.248169 -0.104063,-0.403469z"/>
      </g>
     </g>
     <g>
      <g>
       <path id="_385909552" class="fil1" d="M3.85765 1.5483c-0.0192008,0.0315984 -0.0523346,0.0761654 -0.106335,0.109902 -0.0828661,0.0517323 -0.167469,0.0482992 -0.242433,0.0465 0,0 -0.248961,-0.0059685 -0.518894,0.0126654 -0.191799,0.0132323 -0.259531,0.0370984 -0.314732,0.0676339 -0.0423346,0.0234016 -0.127732,0.0705984 -0.170134,0.164835 -0.0329016,0.0730984 -0.0235669,0.138232 -0.0382677,0.139469 -0.0173661,0.0014685 -0.0454331,-0.0879685 -0.0552992,-0.1775 -0.0190984,-0.173902 0.0444016,-0.306433 0.0608346,-0.345567 0.00993307,-0.0236339 0.0558661,-0.141067 0.174335,-0.255531 0.191531,-0.185067 0.416732,-0.236232 0.577201,-0.269531 0.134201,-0.0278661 0.226398,-0.0312008 0.340264,-0.0337992 0.0819331,-0.00186614 0.167299,0.0166339 0.268701,0.0585315 0.0537992,0.0222323 0.0822677,0.0451654 0.102067,0.0676339 0.0269331,0.0305 0.0430315,0.0312992 0.0757992,0.0936339 0.0292677,0.0556654 0.0494331,0.0940315 0.0850669,0.131031 0.0381654,0.0396339 0.0489016,0.0307323 0.131866,0.0929685 0.0502992,0.0377323 0.0575,0.0595669 0.0886654,0.0972008 0.0240669,0.0290315 0.0505315,0.0826339 0.0656654,0.151165 0.0094685,0.0429331 0.0377008,0.0704685 0.0285669,0.140469 -0.00759843,0.0582008 -0.0853661,0.2625 -0.0978346,0.249366 -0.0187008,-0.0197677 -0.0623661,-0.150732 -0.216902,-0.346567 -0.0435315,-0.0551654 -0.0640984,-0.0780315 -0.0807992,-0.0944016 -0.0111654,-0.0109016 -0.0455984,-0.0435669 -0.0964016,-0.0789016 -0.0164685,-0.0115039 -0.0515354,-0.0371732 -0.061,-0.0212047z"/>
      </g>
     </g>
     <g>
      <g>
       <path id="_385909000" class="fil2" d="M4.31428 2.08983c-0.000566929,6.69291e-005 -0.00109843,-9.84252e-005 -0.0015315,-0.000531496l0 0 0 0 0 0c-0.0187008,-0.0197677 -0.0624016,-0.150732 -0.216902,-0.346567 -0.0435315,-0.0551654 -0.0640984,-0.0780315 -0.0807992,-0.0944016 -0.0111654,-0.0109016 -0.0455984,-0.0435669 -0.0964016,-0.0789016 -0.0164331,-0.0114331 -0.0515,-0.0370984 -0.0609685,-0.0211339 -0.0192008,0.0315984 -0.0523346,0.0761654 -0.106335,0.109902 -0.0828661,0.0517323 -0.167469,0.0482992 -0.242433,0.0465 0,0 -0.248961,-0.0059685 -0.518894,0.0126654 -0.191799,0.0132323 -0.259531,0.0370984 -0.314732,0.0676339 -0.0423346,0.0234016 -0.127732,0.0705984 -0.170134,0.164835 -0.0329016,0.0730984 -0.0235669,0.138232 -0.0382677,0.139469l0 0c-0.249067,0.217433 -0.133531,0.580768 0.0945984,0.646965 0.0460984,0.282697 0.304299,0.517028 0.343465,0.549094 0.153433,0.125665 0.307701,0.161866 0.340268,0.169067 0.167799,0.0370315 0.301398,0.00816535 0.335996,0 0.130433,-0.0307992 0.218299,-0.0900315 0.259433,-0.118335 0.0185984,-0.0127992 0.0930315,-0.0651339 0.170134,-0.156366 0.137701,-0.162969 0.194098,-0.358862 0.218799,-0.474764 0.222638,-0.0375276 0.371807,-0.520894 0.0847047,-0.61513z"/>
      </g>
     </g>
     <g>
      <g>
       <path id="_385908496" class="fil3" d="M3.40822 5.89333l2.04153 0c0.000531496,-0.164701 -0.000933071,-0.963433 -0.153098,-1.45387 -0.0373661,-0.120469 -0.0806339,-0.212 -0.136098,-0.295835 -0.0311339,-0.0470669 -0.1675,-0.244965 -0.433835,-0.380366 -0.2475,-0.125835 -0.578201,-0.131366 -0.688299,-0.126799l-0.630197 0.638465 0 0 -0.619965 -0.638465c-0.110098,-0.00456693 -0.440799,0.000968504 -0.688299,0.126799 -0.266335,0.135402 -0.402701,0.333299 -0.433835,0.380366 -0.0554685,0.0838661 -0.0987323,0.175366 -0.136098,0.295835 -0.152165,0.490465 -0.153665,1.28917 -0.153098,1.45387l2.04153 0m-0.0102323 0l0 0 0 0z"/>
      </g>
     </g>
     <g>
      <g>
       <g>
        <rect id="_385907128" class="fil4" x="2.14505" y="4.93533" width="0.0402007" height="0.957999"/>
       </g>
      </g>
     </g>
     <g>
      <g>
       <path id="_385906216" class="fil5" d="M3.40822 4.2749l0.589028 -0.438799 -0.0114685 -0.0237992c-0.0510984,-0.106268 -0.100268,-0.248165 -0.104,-0.403465 -0.00113386,-0.0473346 0.00259843,-0.0804331 0.00863386,-0.110335 -0.0239331,0.0195984 -0.0419016,0.0321654 -0.0497677,0.0375984 -0.0411339,0.0282992 -0.129031,0.0875315 -0.259433,0.118335 -0.0222992,0.00526772 -0.0857677,0.0190984 -0.172961,0.0183661l0 0.802098 -3.14961e-005 0z"/>
      </g>
     </g>
     <g>
      <g>
       <path id="_385906552" class="fil6" d="M5.29661 4.43946c-0.0373661,-0.120469 -0.0806339,-0.212 -0.136098,-0.295835 -0.0311339,-0.0470669 -0.1675,-0.244965 -0.433835,-0.380366 -0.2475,-0.125835 -0.578201,-0.131366 -0.688299,-0.126799l-0.630197 0.638465 0 1.6184 0.0102323 0 2.03133 0c0.000531496,-0.164701 -0.000933071,-0.963433 -0.153134,-1.45387z"/>
      </g>
     </g>
     <g>
      <g>
       <g>
        <rect id="_385905064" class="fil7" x="4.70831" y="4.93533" width="0.0402007" height="0.957999"/>
       </g>
      </g>
     </g>
     <g>
      <g>
       <path id="_385904128" class="fil8" d="M4.38201 1.69947c-0.0151339,-0.0685315 -0.0415984,-0.122134 -0.0656654,-0.151165 -0.0311654,-0.0376339 -0.0383661,-0.0594685 -0.0886654,-0.0972008 -0.0829685,-0.0622323 -0.0937008,-0.0533661 -0.131866,-0.0929685 -0.0356339,-0.0369685 -0.0557992,-0.0753661 -0.0850669,-0.131031 -0.0327677,-0.0623346 -0.0489016,-0.0631339 -0.0757992,-0.0936339 -0.0197992,-0.0224331 -0.0482992,-0.0454016 -0.102067,-0.0676339 -0.101402,-0.0419016 -0.186768,-0.0604016 -0.268701,-0.0585315 -0.0546339,0.00123228 -0.104268,0.00266535 -0.155965,0.00690157l0 0.689567c0.062563,0 0.100661,0.000901575 0.100661,0.000901575 0.0749685,0.00179921 0.159567,0.00523228 0.242433,-0.0465 0.054,-0.0337008 0.0871339,-0.0782677 0.106335,-0.109902 0.0094685,-0.0159685 0.0445315,0.00970079 0.0609685,0.0211339 0.0507992,0.0353346 0.0852677,0.0679685 0.0964016,0.0789016 0.0167008,0.0163346 0.0372677,0.0392008 0.0807992,0.0944016 0.154531,0.195835 0.198201,0.326799 0.216902,0.346567 0.0124331,0.0131339 0.0902008,-0.191165 0.0978346,-0.249366 0.00915748,-0.0699724 -0.0190394,-0.0975079 -0.0285394,-0.140441z"/>
      </g>
     </g>
     <g>
      <g>
       <path id="_385902568" class="fil9" d="M4.31428 2.08983c-0.000566929,6.69291e-005 -0.00109843,-9.84252e-005 -0.0015315,-0.000531496l0 0c-0.0187008,-0.0197677 -0.0624016,-0.150732 -0.216902,-0.346567 -0.0435315,-0.0551654 -0.0640984,-0.0780315 -0.0807992,-0.0944016 -0.0111654,-0.0109016 -0.0455984,-0.0435669 -0.0964016,-0.0789016 -0.0164331,-0.0114331 -0.0515,-0.0370984 -0.0609685,-0.0211339 -0.0192008,0.0315984 -0.0523346,0.0761654 -0.106335,0.109902 -0.0828661,0.0517323 -0.167469,0.0482992 -0.242433,0.0465 0,0 -0.0380984,-0.000901575 -0.100661,-0.000901575l0 1.76903c0.0872283,0.000732283 0.150697,-0.0130984 0.172961,-0.0183661 0.130433,-0.0307992 0.218299,-0.0900315 0.259433,-0.118335 0.0185984,-0.0127992 0.0930315,-0.0651339 0.170134,-0.156366 0.137701,-0.163 0.194098,-0.358862 0.218799,-0.474764 0.222638,-0.0375591 0.371807,-0.520925 0.0847047,-0.615161z"/>
      </g>
     </g>
     <g>
      <g>
       <g>
        <g>
         <path id="_385902208" class="fil10" d="M4.30571 2.72763c0.161268,0.0135 0.309465,-0.180768 0.331031,-0.433902 0.0215315,-0.253134 -0.104232,-0.469335 -0.265531,-0.482835l-0.0655 0.916736z"/>
        </g>
       </g>
       <g>
        <g>
         <path id="_385901104" class="fil11" d="M4.50234 2.56054c0.100866,0.00843307 0.193531,-0.113031 0.207,-0.271366 0.0134685,-0.158299 -0.0652008,-0.2935 -0.166031,-0.301933l-0.0409685 0.573299z"/>
        </g>
       </g>
      </g>
      <g>
       <g>
        <g>
         <path id="_385901032" class="fil12" d="M2.50888 2.72747c-0.161268,0.0135 -0.309465,-0.180768 -0.331031,-0.433902 -0.0215669,-0.253134 0.104232,-0.469335 0.265531,-0.482835l0.0655 0.916736z"/>
        </g>
       </g>
       <g>
        <g>
         <path id="_386976392" class="fil13" d="M2.31228 2.56037c-0.100866,0.00843307 -0.193531,-0.113031 -0.207,-0.271366 -0.0134685,-0.158335 0.0652008,-0.2935 0.166031,-0.301933l0.0409685 0.573299z"/>
        </g>
       </g>
      </g>
      <g>
       <g>
        <path id="_386976368" class="fil12" d="M2.65481 1.27424c0.0968346,-0.106598 0.209732,-0.190366 0.335634,-0.249 0.130933,-0.0609646 0.270067,-0.0919016 0.413531,-0.0919016 0.000799213,0 0.00159843,3.14961e-005 0.00240157,3.14961e-005 0.000799213,0 0.00159843,-3.14961e-005 0.00240157,-3.14961e-005 0.143465,0 0.282594,0.0309331 0.413528,0.0919016 0.125902,0.0586339 0.238799,0.142402 0.335634,0.249 0.197768,0.217768 0.306701,0.506768 0.306701,0.813835 0,0.197433 -0.0133661,0.364134 -0.0798346,0.584799 -0.0100669,0.0333661 -0.0406654,0.0549016 -0.0738346,0.0549016 -0.00736614,0 -0.0148661,-0.00106693 -0.0222677,-0.00329921 -0.0407992,-0.0122992 -0.0639016,-0.0552992 -0.0515984,-0.0960984 0.0612992,-0.203402 0.0732677,-0.352134 0.0732677,-0.540299 0,-0.551665 -0.404465,-1.00046 -0.901594,-1.00046l0 0 -0.00480315 -7.87402e-006 0 0c-0.497134,0 -0.901598,0.448799 -0.901598,1.00046 0,0.188165 0.012,0.336902 0.0732677,0.540299 0.0122992,0.0407992 -0.0107992,0.0837992 -0.0515984,0.0960984 -0.00743307,0.00223228 -0.0149016,0.00329921 -0.0222677,0.00329921 -0.0331339,0 -0.0637677,-0.0215315 -0.0738346,-0.0549016 -0.0664685,-0.220665 -0.0798346,-0.387366 -0.0798346,-0.584799 3.54331e-005,-0.307059 0.108933,-0.596094 0.306701,-0.813827z"/>
       </g>
      </g>
      <g>
       <g>
        <g>
         <g>
          <path id="_386976272" class="fil12" d="M3.06358 3.0561l0 -0.0803976c-0.289866,0 -0.462732,-0.178165 -0.505433,-0.354732l-0.0781654 0.0189016c0.0272992,0.112799 0.0957992,0.216031 0.192933,0.290665 0.106866,0.0821299 0.241965,0.125563 0.390665,0.125563z"/>
         </g>
        </g>
       </g>
       <g>
        <g>
         <path id="_386975216" class="fil14" d="M2.93808 3.07893l0.448701 0c0.0367323,0 0.0665276,-0.0297992 0.0665276,-0.0665315l0 -0.0274291c0,-0.0367323 -0.0297953,-0.0665315 -0.0665276,-0.0665315l-0.448701 -3.93701e-006c-0.0367323,0 -0.0665315,0.0297992 -0.0665315,0.0665315l0 0.0274291c-3.93701e-006,0.0367362 0.0297992,0.0665354 0.0665315,0.0665354z"/>
        </g>
       </g>
      </g>
      <g>
       <g>
        <path id="_386975000" class="fil10" d="M3.40638 0.93337c0.000799213,0 0.00159843,-3.14961e-005 0.00240157,-3.14961e-005 0.143465,0 0.282594,0.0309331 0.413528,0.0919016 0.125902,0.0586339 0.238799,0.142402 0.335634,0.249 0.197768,0.217768 0.306701,0.506768 0.306701,0.813835 0,0.197433 -0.0133661,0.364134 -0.0798346,0.584799 -0.0100669,0.0333661 -0.0406654,0.0549016 -0.0738346,0.0549016 -0.00736614,0 -0.0148661,-0.00106693 -0.0222677,-0.00329921 -0.0407992,-0.0122992 -0.0639016,-0.0552992 -0.0515984,-0.0960984 0.0612992,-0.203402 0.0732677,-0.352134 0.0732677,-0.540299 0,-0.550768 -0.403134,-0.999 -0.899161,-1.00046 -0.000799213,0 -0.00283465,0 -0.003,0l-0.00183465 -0.154244z"/>
       </g>
      </g>
     </g>
    </g>
   </g>
   <g id="Layer_21">
   </g>
   <g id="Layer_22">
   </g>
   <g id="Layer_23">
   </g>
   <g id="Layer_24">
   </g>
   <g id="Layer_25">
   </g>
   <g id="Layer_26">
   </g>
  </g>
 </g>
 <rect class="fil15" width="6.82666" height="6.82666"/>
</svg>
